<?xml version="1.0" standalone="no"?>
<!DOCTYPE svg PUBLIC "-//W3C//DTD SVG 20010904//EN"
 "http://www.w3.org/TR/2001/REC-SVG-20010904/DTD/svg10.dtd">
<svg version="1.0" xmlns="http://www.w3.org/2000/svg"
 width="512.000000pt" height="512.000000pt" viewBox="0 0 512.000000 512.000000"
 preserveAspectRatio="xMidYMid meet">
<metadata>
Created by potrace 1.11, written by Peter Selinger 2001-2013
</metadata>
<g transform="translate(0.000000,512.000000) scale(0.100000,-0.100000)"
fill="#000000" stroke="none">
<path d="M2409 4936 c-2 -2 -43 -6 -90 -10 -47 -4 -97 -9 -110 -11 -13 -3 -40
-8 -59 -11 -135 -24 -326 -77 -464 -131 -61 -23 -274 -127 -325 -158 -9 -5
-45 -28 -81 -49 -36 -22 -67 -43 -70 -46 -3 -3 -21 -17 -40 -30 -133 -91 -329
-276 -455 -429 -173 -211 -325 -485 -409 -740 -26 -80 -49 -152 -51 -160 -40
-182 -46 -217 -65 -371 -9 -74 -6 -465 3 -506 3 -12 9 -45 12 -75 4 -30 9 -63
10 -74 18 -137 113 -430 196 -603 32 -69 56 -129 52 -135 -3 -5 -2 -7 4 -4 6
4 34 -33 63 -81 162 -267 395 -515 665 -708 94 -67 280 -174 365 -209 25 -10
51 -23 59 -29 7 -6 18 -11 25 -12 6 -2 54 -18 107 -37 85 -32 251 -81 312 -93
86 -17 205 -34 277 -41 188 -16 484 -6 606 22 12 3 39 7 60 11 120 18 329 81
484 146 87 37 261 123 285 141 5 4 55 37 110 74 146 97 226 162 361 297 217
218 393 474 501 731 42 100 46 110 48 115 0 3 13 41 28 85 23 69 46 149 63
220 6 24 22 115 30 165 2 19 7 46 9 60 24 140 24 404 -1 620 -24 208 -128 554
-223 740 -99 192 -248 412 -366 537 -30 32 -51 62 -48 67 3 5 2 6 -4 3 -5 -3
-25 10 -44 30 -31 32 -154 142 -208 186 -12 10 -60 44 -106 76 -46 32 -82 61
-80 65 3 3 2 4 -1 1 -6 -4 -82 35 -114 60 -64 48 -469 211 -570 228 -14 3 -43
10 -65 15 -22 6 -56 14 -75 17 -19 3 -42 8 -50 10 -8 2 -42 7 -75 11 -33 3
-69 8 -80 11 -25 5 -400 14 -406 9z m602 -1184 c35 -32 41 -45 44 -85 3 -48 1
-54 -145 -492 -39 -115 -72 -218 -74 -227 -4 -17 -75 -233 -181 -553 -24 -71
-108 -326 -186 -565 -165 -502 -165 -502 -260 -504 -41 0 -62 5 -86 22 -42 30
-67 84 -58 130 3 21 64 213 135 427 71 215 172 523 225 685 53 162 100 304
105 315 4 11 41 121 81 245 126 394 187 571 201 587 25 31 73 53 116 53 36 0
49 -6 83 -38z m-1032 -643 c59 -47 67 -146 16 -199 -25 -26 -323 -172 -352
-173 -7 0 -13 -4 -13 -9 0 -4 -4 -8 -9 -8 -5 0 -51 -20 -103 -44 -51 -24 -127
-59 -169 -78 -41 -18 -77 -37 -80 -41 -2 -4 39 -27 91 -51 52 -23 115 -52 140
-63 25 -12 79 -37 120 -56 90 -41 145 -66 268 -123 101 -47 128 -71 138 -121
16 -82 -33 -157 -110 -168 -46 -7 -72 2 -251 85 -49 23 -133 61 -185 85 -52
24 -129 59 -170 78 -72 33 -121 55 -247 113 -224 102 -240 111 -261 146 -39
63 -23 145 35 185 16 11 141 70 278 132 296 134 323 147 438 200 49 22 105 48
125 57 20 9 64 29 97 44 88 40 86 40 132 36 25 -2 54 -13 72 -27z m1331 9 c25
-12 47 -22 50 -23 3 -1 30 -13 60 -27 30 -14 118 -54 195 -88 77 -34 151 -68
165 -76 14 -7 97 -46 185 -85 333 -149 351 -159 372 -224 22 -67 -12 -134 -88
-172 -58 -29 -198 -93 -203 -93 -2 0 -60 -27 -129 -60 -70 -33 -129 -60 -132
-60 -3 0 -57 -25 -121 -55 -64 -30 -118 -55 -120 -55 -1 0 -40 -17 -86 -39
-160 -75 -183 -84 -223 -88 -76 -8 -138 53 -139 137 -1 81 26 105 224 194 36
16 111 51 168 78 57 26 105 48 107 48 2 0 36 15 77 34 40 19 99 46 130 60 42
19 56 30 52 41 -3 8 -9 13 -13 10 -4 -2 -37 10 -72 26 -35 17 -102 48 -149 69
-47 21 -128 58 -180 83 -52 24 -120 55 -150 68 -153 65 -192 100 -196 171 -6
116 103 180 216 126z"/>
</g>
</svg>
